<svg width="28" height="26" viewBox="0 0 28 26" fill="none" xmlns="http://www.w3.org/2000/svg">
<g clip-path="url(#clip0_1_142)">
<path d="M26.9308 3.14716C26.7967 3.14716 26.6758 3.18486 26.6758 3.18486L21.6428 5.36273C21.7751 3.91642 21.9123 2.47462 22.0239 1.44429C22.1381 0.393469 21.1585 0.770928 21.1585 0.770928L11.9095 4.05658C11.9095 4.05658 11.5775 3.29962 11.269 2.84634C10.5506 1.78978 9.32235 2.11478 9.32235 2.11478L2.26694 4.46027C2.26694 4.46027 1.29362 4.87749 0.895698 5.98363C0.503092 7.07421 0.895698 8.4029 0.895698 8.4029L4.97181 25.2951L22.6869 12.4804C22.6869 12.4804 27.1003 4.24306 27.2508 3.65412C27.3597 3.23158 27.1304 3.14716 26.9308 3.14716ZM22.0274 11.9824L5.76632 23.7582C6.49576 19.9193 7.29204 16.0775 7.52044 15.6041C7.84975 15.0455 8.41675 14.6545 8.53271 14.5783C9.0798 14.3029 14.737 11.5045 15.9334 10.8656C17.0762 10.2545 17.9252 7.81888 17.9252 7.81888L26.0522 4.30249C25.2293 5.95617 23.3336 9.54265 22.0274 11.9824Z" fill="#F8F8F8"/>
</g>
<defs>
<clipPath id="clip0_1_142">
<rect width="27" height="25" fill="white" transform="translate(0.5 0.5)"/>
</clipPath>
</defs>
</svg>
