<svg width="33" height="28" viewBox="0 0 33 28" fill="none" xmlns="http://www.w3.org/2000/svg">
<g clip-path="url(#clip0_1_30)">
<path d="M30.8672 13.9437L17.846 2.04616L16.9732 1.24827C16.7743 1.06767 16.5054 0.966309 16.2251 0.966309C15.9448 0.966309 15.6758 1.06767 15.477 1.24827L1.58299 13.9437C1.37921 14.1293 1.21817 14.3503 1.10936 14.5936C1.00055 14.837 0.946174 15.0979 0.94945 15.3608C0.962929 16.4452 1.9503 17.3109 3.1365 17.3109H4.5687V27.3446H27.8815V17.3109H29.344C29.9203 17.3109 30.4628 17.1045 30.8706 16.7317C31.0713 16.5487 31.2304 16.3312 31.3386 16.0916C31.4468 15.8521 31.5019 15.5953 31.5007 15.3362C31.5007 14.8124 31.275 14.3165 30.8672 13.9437ZM18.1122 25.1265H14.338V18.842H18.1122V25.1265ZM25.4552 15.0928V25.1265H20.2689V18.1026C20.2689 17.4218 19.6657 16.8703 18.921 16.8703H13.5292C12.7844 16.8703 12.1812 17.4218 12.1812 18.1026V25.1265H6.995V15.0928H3.75993L16.2285 3.70356L17.0069 4.41519L28.6936 15.0928H25.4552Z" fill="#F8F8F8"/>
</g>
<defs>
<clipPath id="clip0_1_30">
<rect width="32" height="27" fill="white" transform="translate(0.0274963 0.5)"/>
</clipPath>
</defs>
</svg>
