<svg width="255" height="154" viewBox="0 0 255 154" fill="none" xmlns="http://www.w3.org/2000/svg">
<g filter="url(#filter0_d_158_21)">
<line x1="4" y1="50" x2="72" y2="50" stroke="#DD6729" stroke-width="4"/>
</g>
<g filter="url(#filter1_d_158_21)">
<line x1="183" y1="50" x2="251" y2="50" stroke="#EF631A" stroke-width="4"/>
</g>
<g filter="url(#filter2_d_158_21)">
<path d="M133 77L146.783 108.016L129.297 104.407L128.325 117.144L155.996 128.744V128.75H156L179 111.5L133 77ZM130.513 78.8687L87 111.5L111.558 129.92L133 146L153.144 130.892L115.312 119.806L130.513 78.8687Z" fill="#2B3A46"/>
</g>
<g filter="url(#filter3_d_158_21)">
<path d="M99.9047 101.057L71.3094 51.5285L99.9047 1.99998H157.095L185.691 51.5285L157.095 101.057H99.9047Z" stroke="#2B3A46" stroke-width="4" shape-rendering="crispEdges"/>
</g>
<g filter="url(#filter4_d_158_21)">
<line x1="169" y1="24" x2="237" y2="24" stroke="#2B3A46" stroke-width="4"/>
</g>
<g filter="url(#filter5_d_158_21)">
<line x1="169" y1="79" x2="237" y2="79" stroke="#2B3A46" stroke-width="4"/>
</g>
<g filter="url(#filter6_d_158_21)">
<line x1="19" y1="79" x2="87" y2="79" stroke="#2B3A46" stroke-width="4"/>
</g>
<g filter="url(#filter7_d_158_21)">
<line x1="23" y1="16" x2="91" y2="16" stroke="#2B3A46" stroke-width="4"/>
</g>
<g filter="url(#filter8_d_158_21)">
<path d="M108.88 53.14V48.28C110.3 49.2 111.72 49.91 113.14 50.41C114.56 50.91 115.94 51.16 117.28 51.16C119.38 51.16 120.87 50.54 121.75 49.3C122.65 48.06 123.1 46.32 123.1 44.08V17.32H127.78V44.08C127.78 46.82 127.36 49.05 126.52 50.77C125.7 52.47 124.52 53.72 122.98 54.52C121.46 55.32 119.66 55.72 117.58 55.72C115.96 55.72 114.43 55.48 112.99 55C111.57 54.5 110.2 53.88 108.88 53.14Z" fill="#2B3A46"/>
<path d="M108.88 53.14H107.88V53.7258L108.391 54.0123L108.88 53.14ZM108.88 48.28L109.424 47.4407L107.88 46.4406V48.28H108.88ZM113.14 50.41L113.473 49.4668L113.473 49.4668L113.14 50.41ZM121.75 49.3L120.941 48.7126L120.935 48.7213L121.75 49.3ZM123.1 17.32V16.32H122.1V17.32H123.1ZM127.78 17.32H128.78V16.32H127.78V17.32ZM126.52 50.77L125.622 50.3312L125.62 50.3355L126.52 50.77ZM122.98 54.52L122.519 53.6326L122.515 53.6351L122.98 54.52ZM112.99 55L112.658 55.9432L112.666 55.946L112.674 55.9487L112.99 55ZM109.88 53.14V48.28H107.88V53.14H109.88ZM108.337 49.1193C109.815 50.0769 111.305 50.824 112.808 51.3532L113.473 49.4668C112.135 48.996 110.786 48.3231 109.424 47.4407L108.337 49.1193ZM112.808 51.3532C114.322 51.8862 115.814 52.16 117.28 52.16V50.16C116.067 50.16 114.799 49.9338 113.473 49.4668L112.808 51.3532ZM117.28 52.16C119.571 52.16 121.433 51.4758 122.566 49.8787L120.935 48.7213C120.308 49.6042 119.19 50.16 117.28 50.16V52.16ZM122.56 49.8874C123.629 48.4141 124.1 46.4378 124.1 44.08H122.1C122.1 46.2022 121.672 47.7059 120.941 48.7126L122.56 49.8874ZM124.1 44.08V17.32H122.1V44.08H124.1ZM123.1 18.32H127.78V16.32H123.1V18.32ZM126.78 17.32V44.08H128.78V17.32H126.78ZM126.78 44.08C126.78 46.729 126.373 48.7937 125.622 50.3312L127.419 51.2088C128.348 49.3063 128.78 46.911 128.78 44.08H126.78ZM125.62 50.3355C124.885 51.8591 123.851 52.941 122.519 53.6326L123.441 55.4074C125.19 54.499 126.516 53.0809 127.421 51.2045L125.62 50.3355ZM122.515 53.6351C121.166 54.3451 119.532 54.72 117.58 54.72V56.72C119.789 56.72 121.755 56.2949 123.446 55.4049L122.515 53.6351ZM117.58 54.72C116.061 54.72 114.638 54.4951 113.307 54.0513L112.674 55.9487C114.223 56.4649 115.86 56.72 117.58 56.72V54.72ZM113.323 54.0568C111.957 53.576 110.64 52.9797 109.369 52.2677L108.391 54.0123C109.761 54.7803 111.184 55.424 112.658 55.9432L113.323 54.0568Z" fill="#2B3A46"/>
</g>
<g filter="url(#filter9_d_158_21)">
<path d="M141.242 77.72C137.922 77.72 135.062 76.89 132.662 75.23C130.262 73.55 128.412 71.23 127.112 68.27C125.812 65.29 125.162 61.84 125.162 57.92C125.162 53.74 125.862 50.22 127.262 47.36C128.682 44.5 130.602 42.34 133.022 40.88C135.462 39.4 138.202 38.66 141.242 38.66C145.262 38.66 148.492 39.67 150.932 41.69C153.392 43.69 155.082 46.3 156.002 49.52L150.962 50.54C150.182 48.2 148.932 46.34 147.212 44.96C145.512 43.56 143.522 42.86 141.242 42.86C139.262 42.86 137.432 43.43 135.752 44.57C134.092 45.69 132.752 47.37 131.732 49.61C130.712 51.85 130.202 54.62 130.202 57.92C130.202 60.92 130.602 63.59 131.402 65.93C132.222 68.27 133.442 70.11 135.062 71.45C136.702 72.79 138.762 73.46 141.242 73.46C144.222 73.46 146.582 72.66 148.322 71.06C150.082 69.46 150.962 67.36 150.962 64.76H156.062C156.062 67.46 155.442 69.78 154.202 71.72C152.962 73.64 151.222 75.12 148.982 76.16C146.762 77.2 144.182 77.72 141.242 77.72Z" fill="#EF631A"/>
<path d="M132.662 75.23L132.088 76.0492L132.093 76.0524L132.662 75.23ZM127.112 68.27L126.195 68.6699L126.196 68.6721L127.112 68.27ZM127.262 47.36L126.366 46.9153L126.363 46.9203L127.262 47.36ZM133.022 40.88L133.538 41.7362L133.54 41.735L133.022 40.88ZM150.932 41.69L150.294 42.4603L150.301 42.4659L150.932 41.69ZM156.002 49.52L156.2 50.5001L157.26 50.2855L156.963 49.2453L156.002 49.52ZM150.962 50.54L150.013 50.8562L150.293 51.6956L151.16 51.5201L150.962 50.54ZM147.212 44.96L146.576 45.732L146.586 45.74L147.212 44.96ZM135.752 44.57L136.311 45.399L136.313 45.3975L135.752 44.57ZM131.732 49.61L132.642 50.0244L132.642 50.0244L131.732 49.61ZM131.402 65.93L130.455 66.2535L130.458 66.2607L131.402 65.93ZM135.062 71.45L134.424 72.2206L134.429 72.2244L135.062 71.45ZM148.322 71.06L147.649 70.32L147.645 70.3239L148.322 71.06ZM150.962 64.76V63.76H149.962V64.76H150.962ZM156.062 64.76H157.062V63.76H156.062V64.76ZM154.202 71.72L155.042 72.2625L155.044 72.2586L154.202 71.72ZM148.982 76.16L148.56 75.253L148.557 75.2544L148.982 76.16ZM141.242 76.72C138.096 76.72 135.441 75.9365 133.23 74.4076L132.093 76.0524C134.682 77.8435 137.747 78.72 141.242 78.72V76.72ZM133.235 74.4108C131 72.8465 129.261 70.678 128.027 67.8679L126.196 68.6721C127.562 71.782 129.523 74.2535 132.088 76.0492L133.235 74.4108ZM128.028 67.8701C126.793 65.0394 126.162 61.7301 126.162 57.92H124.162C124.162 61.9499 124.83 65.5406 126.195 68.6699L128.028 67.8701ZM126.162 57.92C126.162 53.8467 126.844 50.4869 128.16 47.7997L126.363 46.9203C124.879 49.9531 124.162 53.6333 124.162 57.92H126.162ZM128.157 47.8047C129.504 45.0924 131.302 43.0856 133.538 41.7362L132.505 40.0238C129.902 41.5944 127.859 43.9076 126.366 46.9153L128.157 47.8047ZM133.54 41.735C135.814 40.3561 138.372 39.66 141.242 39.66V37.66C138.031 37.66 135.11 38.4439 132.503 40.025L133.54 41.735ZM141.242 39.66C145.093 39.66 148.077 40.625 150.294 42.4603L151.569 40.9197C148.906 38.715 145.43 37.66 141.242 37.66V39.66ZM150.301 42.4659C152.593 44.3292 154.173 46.76 155.04 49.7947L156.963 49.2453C155.99 45.84 154.191 43.0508 151.562 40.9141L150.301 42.4659ZM155.803 48.5399L150.763 49.5599L151.16 51.5201L156.2 50.5001L155.803 48.5399ZM151.91 50.2238C151.077 47.7237 149.725 45.6943 147.837 44.18L146.586 45.74C148.138 46.9857 149.286 48.6763 150.013 50.8562L151.91 50.2238ZM147.847 44.1881C145.961 42.6351 143.745 41.86 141.242 41.86V43.86C143.299 43.86 145.062 44.4849 146.576 45.7319L147.847 44.1881ZM141.242 41.86C139.056 41.86 137.031 42.4931 135.19 43.7425L136.313 45.3975C137.832 44.3669 139.467 43.86 141.242 43.86V41.86ZM135.192 43.741C133.348 44.9855 131.9 46.8261 130.821 49.1956L132.642 50.0244C133.603 47.9139 134.835 46.3945 136.311 45.399L135.192 43.741ZM130.821 49.1956C129.726 51.6021 129.202 54.5232 129.202 57.92H131.202C131.202 54.7168 131.697 52.0979 132.642 50.0244L130.821 49.1956ZM129.202 57.92C129.202 61.0074 129.613 63.7899 130.455 66.2535L132.348 65.6065C131.59 63.3901 131.202 60.8326 131.202 57.92H129.202ZM130.458 66.2607C131.327 68.7413 132.641 70.7452 134.424 72.2206L135.699 70.6794C134.243 69.4748 133.116 67.7987 132.345 65.5993L130.458 66.2607ZM134.429 72.2244C136.277 73.7345 138.572 74.46 141.242 74.46V72.46C138.951 72.46 137.126 71.8455 135.694 70.6756L134.429 72.2244ZM141.242 74.46C144.404 74.46 147.029 73.6068 148.998 71.7961L147.645 70.3239C146.134 71.7132 144.039 72.46 141.242 72.46V74.46ZM148.994 71.7999C150.983 69.9916 151.962 67.6124 151.962 64.76H149.962C149.962 67.1076 149.18 68.9284 147.649 70.3201L148.994 71.7999ZM150.962 65.76H156.062V63.76H150.962V65.76ZM155.062 64.76C155.062 67.3027 154.48 69.4284 153.359 71.1814L155.044 72.2586C156.404 70.1316 157.062 67.6173 157.062 64.76H155.062ZM153.362 71.1775C152.232 72.9261 150.644 74.2858 148.56 75.253L149.403 77.067C151.8 75.9542 153.691 74.3539 155.042 72.2625L153.362 71.1775ZM148.557 75.2544C146.494 76.2211 144.064 76.72 141.242 76.72V78.72C144.299 78.72 147.029 78.1789 149.406 77.0656L148.557 75.2544Z" fill="#E16F1F"/>
</g>
<defs>
<filter id="filter0_d_158_21" x="0" y="48" width="76" height="12" filterUnits="userSpaceOnUse" color-interpolation-filters="sRGB">
<feFlood flood-opacity="0" result="BackgroundImageFix"/>
<feColorMatrix in="SourceAlpha" type="matrix" values="0 0 0 0 0 0 0 0 0 0 0 0 0 0 0 0 0 0 127 0" result="hardAlpha"/>
<feOffset dy="4"/>
<feGaussianBlur stdDeviation="2"/>
<feComposite in2="hardAlpha" operator="out"/>
<feColorMatrix type="matrix" values="0 0 0 0 0 0 0 0 0 0 0 0 0 0 0 0 0 0 0.25 0"/>
<feBlend mode="normal" in2="BackgroundImageFix" result="effect1_dropShadow_158_21"/>
<feBlend mode="normal" in="SourceGraphic" in2="effect1_dropShadow_158_21" result="shape"/>
</filter>
<filter id="filter1_d_158_21" x="179" y="48" width="76" height="12" filterUnits="userSpaceOnUse" color-interpolation-filters="sRGB">
<feFlood flood-opacity="0" result="BackgroundImageFix"/>
<feColorMatrix in="SourceAlpha" type="matrix" values="0 0 0 0 0 0 0 0 0 0 0 0 0 0 0 0 0 0 127 0" result="hardAlpha"/>
<feOffset dy="4"/>
<feGaussianBlur stdDeviation="2"/>
<feComposite in2="hardAlpha" operator="out"/>
<feColorMatrix type="matrix" values="0 0 0 0 0 0 0 0 0 0 0 0 0 0 0 0 0 0 0.25 0"/>
<feBlend mode="normal" in2="BackgroundImageFix" result="effect1_dropShadow_158_21"/>
<feBlend mode="normal" in="SourceGraphic" in2="effect1_dropShadow_158_21" result="shape"/>
</filter>
<filter id="filter2_d_158_21" x="83" y="77" width="100" height="77" filterUnits="userSpaceOnUse" color-interpolation-filters="sRGB">
<feFlood flood-opacity="0" result="BackgroundImageFix"/>
<feColorMatrix in="SourceAlpha" type="matrix" values="0 0 0 0 0 0 0 0 0 0 0 0 0 0 0 0 0 0 127 0" result="hardAlpha"/>
<feOffset dy="4"/>
<feGaussianBlur stdDeviation="2"/>
<feComposite in2="hardAlpha" operator="out"/>
<feColorMatrix type="matrix" values="0 0 0 0 0 0 0 0 0 0 0 0 0 0 0 0 0 0 0.25 0"/>
<feBlend mode="normal" in2="BackgroundImageFix" result="effect1_dropShadow_158_21"/>
<feBlend mode="normal" in="SourceGraphic" in2="effect1_dropShadow_158_21" result="shape"/>
</filter>
<filter id="filter3_d_158_21" x="65" y="0" width="127" height="111.057" filterUnits="userSpaceOnUse" color-interpolation-filters="sRGB">
<feFlood flood-opacity="0" result="BackgroundImageFix"/>
<feColorMatrix in="SourceAlpha" type="matrix" values="0 0 0 0 0 0 0 0 0 0 0 0 0 0 0 0 0 0 127 0" result="hardAlpha"/>
<feOffset dy="4"/>
<feGaussianBlur stdDeviation="2"/>
<feComposite in2="hardAlpha" operator="out"/>
<feColorMatrix type="matrix" values="0 0 0 0 0 0 0 0 0 0 0 0 0 0 0 0 0 0 0.25 0"/>
<feBlend mode="normal" in2="BackgroundImageFix" result="effect1_dropShadow_158_21"/>
<feBlend mode="normal" in="SourceGraphic" in2="effect1_dropShadow_158_21" result="shape"/>
</filter>
<filter id="filter4_d_158_21" x="165" y="22" width="76" height="12" filterUnits="userSpaceOnUse" color-interpolation-filters="sRGB">
<feFlood flood-opacity="0" result="BackgroundImageFix"/>
<feColorMatrix in="SourceAlpha" type="matrix" values="0 0 0 0 0 0 0 0 0 0 0 0 0 0 0 0 0 0 127 0" result="hardAlpha"/>
<feOffset dy="4"/>
<feGaussianBlur stdDeviation="2"/>
<feComposite in2="hardAlpha" operator="out"/>
<feColorMatrix type="matrix" values="0 0 0 0 0 0 0 0 0 0 0 0 0 0 0 0 0 0 0.25 0"/>
<feBlend mode="normal" in2="BackgroundImageFix" result="effect1_dropShadow_158_21"/>
<feBlend mode="normal" in="SourceGraphic" in2="effect1_dropShadow_158_21" result="shape"/>
</filter>
<filter id="filter5_d_158_21" x="165" y="77" width="76" height="12" filterUnits="userSpaceOnUse" color-interpolation-filters="sRGB">
<feFlood flood-opacity="0" result="BackgroundImageFix"/>
<feColorMatrix in="SourceAlpha" type="matrix" values="0 0 0 0 0 0 0 0 0 0 0 0 0 0 0 0 0 0 127 0" result="hardAlpha"/>
<feOffset dy="4"/>
<feGaussianBlur stdDeviation="2"/>
<feComposite in2="hardAlpha" operator="out"/>
<feColorMatrix type="matrix" values="0 0 0 0 0 0 0 0 0 0 0 0 0 0 0 0 0 0 0.25 0"/>
<feBlend mode="normal" in2="BackgroundImageFix" result="effect1_dropShadow_158_21"/>
<feBlend mode="normal" in="SourceGraphic" in2="effect1_dropShadow_158_21" result="shape"/>
</filter>
<filter id="filter6_d_158_21" x="15" y="77" width="76" height="12" filterUnits="userSpaceOnUse" color-interpolation-filters="sRGB">
<feFlood flood-opacity="0" result="BackgroundImageFix"/>
<feColorMatrix in="SourceAlpha" type="matrix" values="0 0 0 0 0 0 0 0 0 0 0 0 0 0 0 0 0 0 127 0" result="hardAlpha"/>
<feOffset dy="4"/>
<feGaussianBlur stdDeviation="2"/>
<feComposite in2="hardAlpha" operator="out"/>
<feColorMatrix type="matrix" values="0 0 0 0 0 0 0 0 0 0 0 0 0 0 0 0 0 0 0.25 0"/>
<feBlend mode="normal" in2="BackgroundImageFix" result="effect1_dropShadow_158_21"/>
<feBlend mode="normal" in="SourceGraphic" in2="effect1_dropShadow_158_21" result="shape"/>
</filter>
<filter id="filter7_d_158_21" x="19" y="14" width="76" height="12" filterUnits="userSpaceOnUse" color-interpolation-filters="sRGB">
<feFlood flood-opacity="0" result="BackgroundImageFix"/>
<feColorMatrix in="SourceAlpha" type="matrix" values="0 0 0 0 0 0 0 0 0 0 0 0 0 0 0 0 0 0 127 0" result="hardAlpha"/>
<feOffset dy="4"/>
<feGaussianBlur stdDeviation="2"/>
<feComposite in2="hardAlpha" operator="out"/>
<feColorMatrix type="matrix" values="0 0 0 0 0 0 0 0 0 0 0 0 0 0 0 0 0 0 0.25 0"/>
<feBlend mode="normal" in2="BackgroundImageFix" result="effect1_dropShadow_158_21"/>
<feBlend mode="normal" in="SourceGraphic" in2="effect1_dropShadow_158_21" result="shape"/>
</filter>
<filter id="filter8_d_158_21" x="104.88" y="17.32" width="26.9" height="46.4" filterUnits="userSpaceOnUse" color-interpolation-filters="sRGB">
<feFlood flood-opacity="0" result="BackgroundImageFix"/>
<feColorMatrix in="SourceAlpha" type="matrix" values="0 0 0 0 0 0 0 0 0 0 0 0 0 0 0 0 0 0 127 0" result="hardAlpha"/>
<feOffset dy="4"/>
<feGaussianBlur stdDeviation="2"/>
<feComposite in2="hardAlpha" operator="out"/>
<feColorMatrix type="matrix" values="0 0 0 0 0 0 0 0 0 0 0 0 0 0 0 0 0 0 0.25 0"/>
<feBlend mode="normal" in2="BackgroundImageFix" result="effect1_dropShadow_158_21"/>
<feBlend mode="normal" in="SourceGraphic" in2="effect1_dropShadow_158_21" result="shape"/>
</filter>
<filter id="filter9_d_158_21" x="121.162" y="38.66" width="38.9" height="47.06" filterUnits="userSpaceOnUse" color-interpolation-filters="sRGB">
<feFlood flood-opacity="0" result="BackgroundImageFix"/>
<feColorMatrix in="SourceAlpha" type="matrix" values="0 0 0 0 0 0 0 0 0 0 0 0 0 0 0 0 0 0 127 0" result="hardAlpha"/>
<feOffset dy="4"/>
<feGaussianBlur stdDeviation="2"/>
<feComposite in2="hardAlpha" operator="out"/>
<feColorMatrix type="matrix" values="0 0 0 0 0 0 0 0 0 0 0 0 0 0 0 0 0 0 0.25 0"/>
<feBlend mode="normal" in2="BackgroundImageFix" result="effect1_dropShadow_158_21"/>
<feBlend mode="normal" in="SourceGraphic" in2="effect1_dropShadow_158_21" result="shape"/>
</filter>
</defs>
</svg>
