<svg width="20" height="20" viewBox="0 0 20 20" fill="none" xmlns="http://www.w3.org/2000/svg">
<path d="M11.92 6C11.44 3.16 8.97 1 6 1C2.69 1 0 3.69 0 7C0 9.97 2.16 12.44 5 12.92V19H7V12.91C7 11.93 6.29 11.11 5.33 10.94C4.60634 10.8176 3.93033 10.4984 3.37601 10.0173C2.82169 9.5363 2.41044 8.91199 2.18731 8.21279C1.96418 7.5136 1.93777 6.76648 2.11098 6.05327C2.28419 5.34006 2.65033 4.68827 3.1693 4.1693C3.68827 3.65033 4.34006 3.28419 5.05327 3.11098C5.76648 2.93777 6.5136 2.96418 7.21279 3.18731C7.91199 3.41044 8.5363 3.82169 9.01734 4.37601C9.49837 4.93033 9.81758 5.60634 9.94 6.33C10.11 7.29 10.93 8 11.91 8H16.17L14.58 9.59L16 11L20 7L16 3L14.59 4.41L16.17 6H11.92Z" fill="#F8F8F8"/>
</svg>
